<!-- Author: MaxQNEI (maxqnei@gmail.com) -->
<!-- Target: AudioWars.Space (http://audiowars.space) -->
<svg xmlns="http://www.w3.org/2000/svg" viewBox="0 0 300 300">
	<path fill="black" d="M 150,25 C 150,25 92,130 92,130 92,130 109,138 109,138 109,138 150,49 150,49 150,49 191,138 191,138 191,138 208,130 208,130 208,130 150,25 150,25 Z" />
	<path fill="black" d="M 30,51 C 30,51 30,164 30,164 30,164 142,265 270,163 270,163 270,163 270,161 270,161 205,220 118,182 33,150 30,51 30,51 Z" />
	<path fill="black" d="M 62,184 C 62,184 30,241 30,241 30,241 30,265 30,265 30,265 61,242 61,242 61,242 83,194 83,194 83,194 62,184 62,184 Z" />
	<path fill="black" d="M 217,194 C 217,194 239,242 239,242 239,242 270,265 270,265 270,265 270,241 270,241 270,241 237,184 237,184 237,184 217,194 217,194 Z" />
</svg>